<?plantuml 1.2026.2?><svg xmlns="http://www.w3.org/2000/svg" xmlns:xlink="http://www.w3.org/1999/xlink" contentStyleType="text/css" data-diagram-type="SEQUENCE" height="935px" preserveAspectRatio="none" style="width:1018px;height:935px;background:#FFFFFF;" version="1.1" viewBox="0 0 1018 935" width="1018px" zoomAndPan="magnify"><defs/><g><rect fill="#FFFFFF" height="679.9297" style="stroke:#000000;stroke-width:1;" width="996.8984" x="15" y="157.5625"/><rect fill="#FFFFFF" height="604.5313" style="stroke:none;stroke-width:1;" width="996.8984" x="15" y="232.9609"/><rect fill="#FFFFFF" height="355.5313" style="stroke:#000000;stroke-width:1;" width="976.8984" x="25" y="474.9609"/><rect fill="#FFFFFF" height="104.5313" style="stroke:#000000;stroke-width:1;" width="712.7944" x="279.104" y="557.3594"/><rect fill="#FFFFFF" height="88.2031" style="stroke:none;stroke-width:1;" width="976.8984" x="25" y="742.2891"/><g class="participant-lifeline" data-entity-uid="part1" data-qualified-name="s" id="part1-lifeline"><g><title>Student</title><rect fill="#000000" fill-opacity="0.00000" height="772.1953" width="8" x="61.5557" y="82.2969"/><line style="stroke:#000000;stroke-width:1;stroke-dasharray:5,5;" x1="65" x2="65" y1="82.2969" y2="854.4922"/></g></g><g class="participant-lifeline" data-entity-uid="part2" data-qualified-name="UI" id="part2-lifeline"><g><title>App UI</title><rect fill="#000000" fill-opacity="0.00000" height="772.1953" width="8" x="325.1924" y="82.2969"/><line style="stroke:#000000;stroke-width:1;stroke-dasharray:5,5;" x1="329.104" x2="329.104" y1="82.2969" y2="854.4922"/></g></g><g class="participant-lifeline" data-entity-uid="part3" data-qualified-name="GH" id="part3-lifeline"><g><title>GitHub REST API</title><rect fill="#000000" fill-opacity="0.00000" height="772.1953" width="8" x="743.0708" y="82.2969"/><line style="stroke:#000000;stroke-width:1;stroke-dasharray:5,5;" x1="746.2832" x2="746.2832" y1="82.2969" y2="854.4922"/></g></g><g class="participant-lifeline" data-entity-uid="part4" data-qualified-name="FS" id="part4-lifeline"><g><title>Local Filesystem</title><rect fill="#000000" fill-opacity="0.00000" height="772.1953" width="8" x="902.8784" y="82.2969"/><line style="stroke:#000000;stroke-width:1;stroke-dasharray:5,5;" x1="906.8584" x2="906.8584" y1="82.2969" y2="854.4922"/></g></g><g class="participant participant-head" data-entity-uid="part1" data-qualified-name="s" id="part1-head"><text fill="#000000" font-family="Verdana" font-size="14" lengthAdjust="spacing" textLength="55.1113" x="35" y="78.9951">Student</text><ellipse cx="65.5557" cy="14" fill="#FFFFFF" rx="8" ry="8" style="stroke:#000000;stroke-width:1;"/><path d="M65.5557,22 L65.5557,49 M52.5557,30 L78.5557,30 M65.5557,49 L52.5557,64 M65.5557,49 L78.5557,64" fill="none" style="stroke:#000000;stroke-width:1;"/></g><g class="participant participant-tail" data-entity-uid="part1" data-qualified-name="s" id="part1-tail"><text fill="#000000" font-family="Verdana" font-size="14" lengthAdjust="spacing" textLength="55.1113" x="35" y="866.4873">Student</text><ellipse cx="65.5557" cy="878.7891" fill="#FFFFFF" rx="8" ry="8" style="stroke:#000000;stroke-width:1;"/><path d="M65.5557,886.7891 L65.5557,913.7891 M52.5557,894.7891 L78.5557,894.7891 M65.5557,913.7891 L52.5557,928.7891 M65.5557,913.7891 L78.5557,928.7891" fill="none" style="stroke:#000000;stroke-width:1;"/></g><g class="participant participant-head" data-entity-uid="part2" data-qualified-name="UI" id="part2-head"><rect fill="#FFFFFF" height="30.2969" rx="2.5" ry="2.5" style="stroke:#000000;stroke-width:1;" width="60.1768" x="299.104" y="51"/><text fill="#000000" font-family="Verdana" font-size="14" lengthAdjust="spacing" textLength="46.1768" x="306.104" y="70.9951">App UI</text></g><g class="participant participant-tail" data-entity-uid="part2" data-qualified-name="UI" id="part2-tail"><rect fill="#FFFFFF" height="30.2969" rx="2.5" ry="2.5" style="stroke:#000000;stroke-width:1;" width="60.1768" x="299.104" y="853.4922"/><text fill="#000000" font-family="Verdana" font-size="14" lengthAdjust="spacing" textLength="46.1768" x="306.104" y="873.4873">App UI</text></g><g class="participant participant-head" data-entity-uid="part3" data-qualified-name="GH" id="part3-head"><rect fill="#FFFFFF" height="30.2969" rx="2.5" ry="2.5" style="stroke:#000000;stroke-width:1;" width="129.5752" x="682.2832" y="51"/><text fill="#000000" font-family="Verdana" font-size="14" lengthAdjust="spacing" textLength="115.5752" x="689.2832" y="70.9951">GitHub REST API</text></g><g class="participant participant-tail" data-entity-uid="part3" data-qualified-name="GH" id="part3-tail"><rect fill="#FFFFFF" height="30.2969" rx="2.5" ry="2.5" style="stroke:#000000;stroke-width:1;" width="129.5752" x="682.2832" y="853.4922"/><text fill="#000000" font-family="Verdana" font-size="14" lengthAdjust="spacing" textLength="115.5752" x="689.2832" y="873.4873">GitHub REST API</text></g><g class="participant participant-head" data-entity-uid="part4" data-qualified-name="FS" id="part4-head"><rect fill="#FFFFFF" height="30.2969" rx="2.5" ry="2.5" style="stroke:#000000;stroke-width:1;" width="130.04" x="841.8584" y="51"/><text fill="#000000" font-family="Verdana" font-size="14" lengthAdjust="spacing" textLength="116.04" x="848.8584" y="70.9951">Local Filesystem</text></g><g class="participant participant-tail" data-entity-uid="part4" data-qualified-name="FS" id="part4-tail"><rect fill="#FFFFFF" height="30.2969" rx="2.5" ry="2.5" style="stroke:#000000;stroke-width:1;" width="130.04" x="841.8584" y="853.4922"/><text fill="#000000" font-family="Verdana" font-size="14" lengthAdjust="spacing" textLength="116.04" x="848.8584" y="873.4873">Local Filesystem</text></g><g class="message" data-entity-1="part1" data-entity-2="part2" id="msg1"><polygon fill="#000000" points="317.1924,109.4297,327.1924,113.4297,317.1924,117.4297,321.1924,113.4297" style="stroke:#000000;stroke-width:1;"/><line style="stroke:#000000;stroke-width:1;" x1="65.5557" x2="323.1924" y1="113.4297" y2="113.4297"/><text fill="#000000" font-family="Verdana" font-size="13" lengthAdjust="spacing" textLength="154.2354" x="72.5557" y="108.3638">enters GitHub repo URL</text></g><g class="message" data-entity-1="part2" data-entity-2="part3" id="msg2"><polygon fill="#000000" points="735.0708,138.5625,745.0708,142.5625,735.0708,146.5625,739.0708,142.5625" style="stroke:#000000;stroke-width:1;"/><line style="stroke:#000000;stroke-width:1;" x1="329.1924" x2="741.0708" y1="142.5625" y2="142.5625"/><text fill="#000000" font-family="Verdana" font-size="13" lengthAdjust="spacing" textLength="182.6221" x="336.1924" y="137.4966">GET /repos/{owner}/{repo}</text></g><path d="M15,157.5625 L79.4429,157.5625 L79.4429,164.6953 L69.4429,174.6953 L15,174.6953 L15,157.5625" fill="#FFFFFF" style="stroke:#000000;stroke-width:1;"/><rect fill="none" height="679.9297" style="stroke:#000000;stroke-width:1;" width="996.8984" x="15" y="157.5625"/><text fill="#000000" font-family="Verdana" font-size="13" font-weight="bold" lengthAdjust="spacing" textLength="19.4429" x="30" y="170.6294">alt</text><text fill="#000000" font-family="Verdana" font-size="11" font-weight="bold" lengthAdjust="spacing" textLength="184.0835" x="94.4429" y="169.7729">[repo not found / invalid URL]</text><g class="message" data-entity-1="part3" data-entity-2="part2" id="msg3"><polygon fill="#000000" points="340.1924,191.8281,330.1924,195.8281,340.1924,199.8281,336.1924,195.8281" style="stroke:#000000;stroke-width:1;"/><line style="stroke:#000000;stroke-width:1;stroke-dasharray:2,2;" x1="334.1924" x2="746.0708" y1="195.8281" y2="195.8281"/><text fill="#000000" font-family="Verdana" font-size="13" lengthAdjust="spacing" textLength="69.4434" x="346.1924" y="190.7622">404 / error</text></g><g class="message" data-entity-1="part2" data-entity-2="part1" id="msg4"><polygon fill="#000000" points="76.5557,220.9609,66.5557,224.9609,76.5557,228.9609,72.5557,224.9609" style="stroke:#000000;stroke-width:1;"/><line style="stroke:#000000;stroke-width:1;stroke-dasharray:2,2;" x1="70.5557" x2="328.1924" y1="224.9609" y2="224.9609"/><text fill="#000000" font-family="Verdana" font-size="13" lengthAdjust="spacing" textLength="132.2725" x="82.5557" y="219.895">show error message</text></g><line style="stroke:#000000;stroke-width:1;stroke-dasharray:2,2;" x1="15" x2="1011.8984" y1="233.9609" y2="233.9609"/><text fill="#000000" font-family="Verdana" font-size="11" font-weight="bold" lengthAdjust="spacing" textLength="72.209" x="20" y="244.1714">[valid repo]</text><g class="message" data-entity-1="part3" data-entity-2="part2" id="msg5"><polygon fill="#000000" points="340.1924,264.8984,330.1924,268.8984,340.1924,272.8984,336.1924,268.8984" style="stroke:#000000;stroke-width:1;"/><line style="stroke:#000000;stroke-width:1;stroke-dasharray:2,2;" x1="334.1924" x2="746.0708" y1="268.8984" y2="268.8984"/><text fill="#000000" font-family="Verdana" font-size="13" lengthAdjust="spacing" textLength="251.1577" x="346.1924" y="263.8325">repo metadata (name, default branch)</text></g><g class="message" data-entity-1="part2" data-entity-2="part1" id="msg6"><polygon fill="#000000" points="76.5557,324.2969,66.5557,328.2969,76.5557,332.2969,72.5557,328.2969" style="stroke:#000000;stroke-width:1;"/><line style="stroke:#000000;stroke-width:1;stroke-dasharray:2,2;" x1="70.5557" x2="328.1924" y1="328.2969" y2="328.2969"/><text fill="#000000" font-family="Verdana" font-size="13" lengthAdjust="spacing" textLength="163.9155" x="82.5557" y="292.9653">show confirmation dialog</text><text fill="#000000" font-family="Verdana" font-size="13" lengthAdjust="spacing" textLength="239.6367" x="82.5557" y="308.0981">(folder name = repo name, editable)</text><text fill="#000000" font-family="Verdana" font-size="13" lengthAdjust="spacing" textLength="175.8491" x="82.5557" y="323.231">(&#9745; Download immediately)</text></g><g class="message" data-entity-1="part1" data-entity-2="part2" id="msg7"><polygon fill="#000000" points="317.1924,353.4297,327.1924,357.4297,317.1924,361.4297,321.1924,357.4297" style="stroke:#000000;stroke-width:1;"/><line style="stroke:#000000;stroke-width:1;" x1="65.5557" x2="323.1924" y1="357.4297" y2="357.4297"/><text fill="#000000" font-family="Verdana" font-size="13" lengthAdjust="spacing" textLength="166.9751" x="72.5557" y="352.3638">optionally renames folder</text></g><g class="message" data-entity-1="part1" data-entity-2="part2" id="msg8"><polygon fill="#000000" points="317.1924,382.5625,327.1924,386.5625,317.1924,390.5625,321.1924,386.5625" style="stroke:#000000;stroke-width:1;"/><line style="stroke:#000000;stroke-width:1;" x1="65.5557" x2="323.1924" y1="386.5625" y2="386.5625"/><text fill="#000000" font-family="Verdana" font-size="13" lengthAdjust="spacing" textLength="56.3101" x="72.5557" y="381.4966">confirms</text></g><g class="message" data-entity-1="part2" data-entity-2="part4" id="msg9"><polygon fill="#000000" points="894.8784,411.6953,904.8784,415.6953,894.8784,419.6953,898.8784,415.6953" style="stroke:#000000;stroke-width:1;"/><line style="stroke:#000000;stroke-width:1;" x1="329.1924" x2="900.8784" y1="415.6953" y2="415.6953"/><text fill="#000000" font-family="Verdana" font-size="13" lengthAdjust="spacing" textLength="152.0898" x="336.1924" y="410.6294">create /{folder_name}/</text></g><g class="message" data-entity-1="part2" data-entity-2="part4" id="msg10"><polygon fill="#000000" points="894.8784,455.9609,904.8784,459.9609,894.8784,463.9609,898.8784,459.9609" style="stroke:#000000;stroke-width:1;"/><line style="stroke:#000000;stroke-width:1;" x1="329.1924" x2="900.8784" y1="459.9609" y2="459.9609"/><text fill="#000000" font-family="Verdana" font-size="13" lengthAdjust="spacing" textLength="278.2241" x="336.1924" y="439.7622">create /{folder_name}/.source/source.json</text><text fill="#000000" font-family="Verdana" font-size="13" lengthAdjust="spacing" textLength="257.6704" x="336.1924" y="454.895">(type: github, url, branch, folder_name)</text></g><path d="M25,474.9609 L89.4429,474.9609 L89.4429,482.0938 L79.4429,492.0938 L25,492.0938 L25,474.9609" fill="#FFFFFF" style="stroke:#000000;stroke-width:1;"/><rect fill="none" height="355.5313" style="stroke:#000000;stroke-width:1;" width="976.8984" x="25" y="474.9609"/><text fill="#000000" font-family="Verdana" font-size="13" font-weight="bold" lengthAdjust="spacing" textLength="19.4429" x="40" y="488.0278">alt</text><text fill="#000000" font-family="Verdana" font-size="11" font-weight="bold" lengthAdjust="spacing" textLength="210.3589" x="104.4429" y="487.1714">[Download immediately (default)]</text><g class="message" data-entity-1="part2" data-entity-2="part3" id="msg11"><polygon fill="#000000" points="735.0708,509.2266,745.0708,513.2266,735.0708,517.2266,739.0708,513.2266" style="stroke:#000000;stroke-width:1;"/><line style="stroke:#000000;stroke-width:1;" x1="329.1924" x2="741.0708" y1="513.2266" y2="513.2266"/><text fill="#000000" font-family="Verdana" font-size="13" lengthAdjust="spacing" textLength="393.8784" x="336.1924" y="508.1606">GET /repos/{owner}/{repo}/git/trees/{branch}?recursive=1</text></g><g class="message" data-entity-1="part3" data-entity-2="part2" id="msg12"><polygon fill="#000000" points="340.1924,538.3594,330.1924,542.3594,340.1924,546.3594,336.1924,542.3594" style="stroke:#000000;stroke-width:1;"/><line style="stroke:#000000;stroke-width:1;stroke-dasharray:2,2;" x1="334.1924" x2="746.0708" y1="542.3594" y2="542.3594"/><text fill="#000000" font-family="Verdana" font-size="13" lengthAdjust="spacing" textLength="74.5405" x="346.1924" y="537.2935">full file tree</text></g><path d="M279.104,557.3594 L355.728,557.3594 L355.728,564.4922 L345.728,574.4922 L279.104,574.4922 L279.104,557.3594" fill="#FFFFFF" style="stroke:#000000;stroke-width:1;"/><rect fill="none" height="104.5313" style="stroke:#000000;stroke-width:1;" width="712.7944" x="279.104" y="557.3594"/><text fill="#000000" font-family="Verdana" font-size="13" font-weight="bold" lengthAdjust="spacing" textLength="31.624" x="294.104" y="570.4263">loop</text><text fill="#000000" font-family="Verdana" font-size="11" font-weight="bold" lengthAdjust="spacing" textLength="84.5034" x="370.728" y="569.5698">[for each file]</text><g class="message" data-entity-1="part2" data-entity-2="part3" id="msg13"><polygon fill="#000000" points="735.0708,591.625,745.0708,595.625,735.0708,599.625,739.0708,595.625" style="stroke:#000000;stroke-width:1;"/><line style="stroke:#000000;stroke-width:1;" x1="329.1924" x2="741.0708" y1="595.625" y2="595.625"/><text fill="#000000" font-family="Verdana" font-size="13" lengthAdjust="spacing" textLength="132.1392" x="336.1924" y="590.5591">GET raw file content</text></g><g class="message" data-entity-1="part3" data-entity-2="part2" id="msg14"><polygon fill="#000000" points="340.1924,620.7578,330.1924,624.7578,340.1924,628.7578,336.1924,624.7578" style="stroke:#000000;stroke-width:1;"/><line style="stroke:#000000;stroke-width:1;stroke-dasharray:2,2;" x1="334.1924" x2="746.0708" y1="624.7578" y2="624.7578"/><text fill="#000000" font-family="Verdana" font-size="13" lengthAdjust="spacing" textLength="59.7441" x="346.1924" y="619.6919">file bytes</text></g><g class="message" data-entity-1="part2" data-entity-2="part4" id="msg15"><polygon fill="#000000" points="894.8784,649.8906,904.8784,653.8906,894.8784,657.8906,898.8784,653.8906" style="stroke:#000000;stroke-width:1;"/><line style="stroke:#000000;stroke-width:1;" x1="329.1924" x2="900.8784" y1="653.8906" y2="653.8906"/><text fill="#000000" font-family="Verdana" font-size="13" lengthAdjust="spacing" textLength="196.7329" x="336.1924" y="648.8247">write file to /{folder_name}/...</text></g><g class="message" data-entity-1="part2" data-entity-2="part4" id="msg16"><polygon fill="#000000" points="894.8784,701.1563,904.8784,705.1563,894.8784,709.1563,898.8784,705.1563" style="stroke:#000000;stroke-width:1;"/><line style="stroke:#000000;stroke-width:1;" x1="329.1924" x2="900.8784" y1="705.1563" y2="705.1563"/><text fill="#000000" font-family="Verdana" font-size="13" lengthAdjust="spacing" textLength="282.8262" x="336.1924" y="684.9575">write /{folder_name}/.source/manifest.json</text><text fill="#000000" font-family="Verdana" font-size="13" lengthAdjust="spacing" textLength="135.5479" x="336.1924" y="700.0903">(file paths + hashes)</text></g><g class="message" data-entity-1="part2" data-entity-2="part1" id="msg17"><polygon fill="#000000" points="76.5557,730.2891,66.5557,734.2891,76.5557,738.2891,72.5557,734.2891" style="stroke:#000000;stroke-width:1;"/><line style="stroke:#000000;stroke-width:1;stroke-dasharray:2,2;" x1="70.5557" x2="328.1924" y1="734.2891" y2="734.2891"/><text fill="#000000" font-family="Verdana" font-size="13" lengthAdjust="spacing" textLength="167.8384" x="82.5557" y="729.2231">source added &amp; synced &#10003;</text></g><line style="stroke:#000000;stroke-width:1;stroke-dasharray:2,2;" x1="25" x2="1001.8984" y1="743.2891" y2="743.2891"/><text fill="#000000" font-family="Verdana" font-size="11" font-weight="bold" lengthAdjust="spacing" textLength="92.4795" x="30" y="753.4995">[Register only]</text><g class="message" data-entity-1="part2" data-entity-2="part4" id="msg18"><polygon fill="#000000" points="894.8784,789.3594,904.8784,793.3594,894.8784,797.3594,898.8784,793.3594" style="stroke:#000000;stroke-width:1;"/><line style="stroke:#000000;stroke-width:1;" x1="329.1924" x2="900.8784" y1="793.3594" y2="793.3594"/><text fill="#000000" font-family="Verdana" font-size="13" lengthAdjust="spacing" textLength="282.8262" x="336.1924" y="773.1606">write /{folder_name}/.source/manifest.json</text><text fill="#000000" font-family="Verdana" font-size="13" lengthAdjust="spacing" textLength="197.7676" x="336.1924" y="788.2935">(empty, sync_status: pending)</text></g><g class="message" data-entity-1="part2" data-entity-2="part1" id="msg19"><polygon fill="#000000" points="76.5557,818.4922,66.5557,822.4922,76.5557,826.4922,72.5557,822.4922" style="stroke:#000000;stroke-width:1;"/><line style="stroke:#000000;stroke-width:1;stroke-dasharray:2,2;" x1="70.5557" x2="328.1924" y1="822.4922" y2="822.4922"/><text fill="#000000" font-family="Verdana" font-size="13" lengthAdjust="spacing" textLength="198.4277" x="82.5557" y="817.4263">source added, sync pending &#10003;</text></g><?plantuml-src fLDTQzim57tthxZhmqXP6c_Gfq0x2ckJGXz6qhmDoerr7Ml8af3a1XFo8yPUzh1Vrr-oAoiVpPfkWmLCR9zpppawaj-4Yce2gr3g38jW74n38qW7G0y-i-Y2BAH5Vd5oPItCRayYChizX4OoZ9ivJAwdzt3rEN56uqFEdIbGmOrKv5iVgEv8DzCiyt1soOem1FObnvD9pP4rC9lSPOmnOpHcnkZw7l88-7nbbfhSEb_5ntM6AgG9RGAKfj42Sf3w4PKKdGhmZpNEjcRdxy-PGSuPrs7HXJ7FaA_CCY5Ga_Uue8oK9qXYqUM5McTTKq210Q6diQO-22gnuLnpXxgeJe_Q54QNqjKOfD4W92gp-A9xfL6274GPkDYigvCa8GFE5PqowUd7D_Z4BIY30cHTCuQ1L9kCzhKQ6yLHgPQLeeo7fFyRRnF5xt9Uylx4zuvO5_9Lcdg84klytrW3RnfNK9x-1b-zqPmyj9Q6i92XQkPzQ9pgRphgmxFfj8wuiSTM2RrDlOcsJ_FdWvApQnuS4GF9S_tHKT4uBn_fuiDEw_dcberIKFB9XJYueoXZBETrG5XK7Rw3ZgHnk4mQN7FWatx0FN2Bf7aRo1-HwwfUEibDfq3cHUE3mMwEjCXUdNzbfshKiYGVjdlLsLWCbOTtKA6lo1yslZtDtJYW42JWBVXM5tppzFDxH-w-dmaj97_w3enMxNy7ezg6jjyPFVY0eV53iBnYgHT_3PZ6jlHzIkwBhry0?></g></svg>