<?plantuml 1.2026.2?><svg xmlns="http://www.w3.org/2000/svg" xmlns:xlink="http://www.w3.org/1999/xlink" contentStyleType="text/css" data-diagram-type="DESCRIPTION" height="748px" preserveAspectRatio="none" style="width:1190px;height:748px;background:#FFFFFF;" version="1.1" viewBox="0 0 1190 748" width="1190px" zoomAndPan="magnify"><defs/><g><!--cluster Classhub--><g class="cluster" data-qualified-name="Classhub" data-source-line="6" id="ent0003"><rect fill="#FFFFFF" height="730" rx="2.5" ry="2.5" style="stroke:#000000;stroke-width:1;" width="1071" x="113" y="12"/><text fill="#000000" font-family="Verdana" font-size="14" font-weight="bold" lengthAdjust="spacing" textLength="71.1416" x="612.9292" y="26.9951">Classhub</text></g><!--cluster Source Management--><g class="cluster" data-qualified-name="Classhub.Source Management" data-source-line="7" id="ent0004"><rect fill="#FFFFFF" height="372" rx="2.5" ry="2.5" style="stroke:#000000;stroke-width:1;" width="734" x="198" y="55"/><text fill="#000000" font-family="Verdana" font-size="14" font-weight="bold" lengthAdjust="spacing" textLength="162.292" x="483.854" y="69.9951">Source Management</text></g><!--cluster File Management--><g class="cluster" data-qualified-name="Classhub.File Management" data-source-line="21" id="ent0016"><rect fill="#FFFFFF" height="267" rx="2.5" ry="2.5" style="stroke:#000000;stroke-width:1;" width="302" x="137" y="451"/><text fill="#000000" font-family="Verdana" font-size="14" font-weight="bold" lengthAdjust="spacing" textLength="136.582" x="219.709" y="465.9951">File Management</text></g><!--entity AUTH--><g class="entity" data-qualified-name="Classhub.AUTH" data-source-line="27" id="ent0020"><ellipse cx="1105.4659" cy="182.8932" fill="#FFFFFF" rx="62.4659" ry="14.8932" style="stroke:#000000;stroke-width:1;"/><text fill="#000000" font-family="Verdana" font-size="14" lengthAdjust="spacing" textLength="86.6318" x="1062.15" y="187.5416">Google Auth</text></g><!--entity ANS--><g class="entity" data-qualified-name="Classhub.Source Management.ANS" data-source-line="8" id="ent0005"><ellipse cx="288.044" cy="258.1088" fill="#FFFFFF" rx="73.544" ry="17.1088" style="stroke:#000000;stroke-width:1;"/><text fill="#000000" font-family="Verdana" font-size="14" lengthAdjust="spacing" textLength="115.1787" x="230.4547" y="262.7572">Add New Source</text></g><!--entity AREPO--><g class="entity" data-qualified-name="Classhub.Source Management.AREPO" data-source-line="9" id="ent0006"><ellipse cx="731.796" cy="321.0236" fill="#FFFFFF" rx="50.796" ry="14.5236" style="stroke:#000000;stroke-width:1;"/><text fill="#000000" font-family="Verdana" font-size="14" lengthAdjust="spacing" textLength="67.5938" x="697.9991" y="325.6721">Add Repo</text></g><!--entity ADRIVE--><g class="entity" data-qualified-name="Classhub.Source Management.ADRIVE" data-source-line="10" id="ent0007"><ellipse cx="731.7875" cy="253.0575" fill="#FFFFFF" rx="78.2875" ry="18.0575" style="stroke:#000000;stroke-width:1;"/><text fill="#000000" font-family="Verdana" font-size="14" lengthAdjust="spacing" textLength="126.6221" x="668.4765" y="257.7059">Add Drive (public)</text></g><!--entity ACLASSROOM--><g class="entity" data-qualified-name="Classhub.Source Management.ACLASSROOM" data-source-line="11" id="ent0008"><ellipse cx="732.0164" cy="182.8033" fill="#FFFFFF" rx="69.5164" ry="16.3033" style="stroke:#000000;stroke-width:1;"/><text fill="#000000" font-family="Verdana" font-size="14" lengthAdjust="spacing" textLength="105.1572" x="679.4378" y="187.4517">Add Classroom</text></g><!--entity SS--><g class="entity" data-qualified-name="Classhub.Source Management.SS" data-source-line="13" id="ent0009"><ellipse cx="287.9485" cy="190.8897" fill="#FFFFFF" rx="62.4485" ry="14.8897" style="stroke:#000000;stroke-width:1;"/><text fill="#000000" font-family="Verdana" font-size="14" lengthAdjust="spacing" textLength="86.584" x="244.6565" y="195.5381">Sync Source</text></g><!--entity SAS--><g class="entity" data-qualified-name="Classhub.Source Management.SAS" data-source-line="14" id="ent0010"><ellipse cx="287.7507" cy="107.1501" fill="#FFFFFF" rx="73.7507" ry="17.1501" style="stroke:#000000;stroke-width:1;"/><text fill="#000000" font-family="Verdana" font-size="14" lengthAdjust="spacing" textLength="115.6846" x="229.9084" y="111.7986">Sync All Sources</text></g><!--entity VSS--><g class="entity" data-qualified-name="Classhub.Source Management.VSS" data-source-line="15" id="ent0011"><ellipse cx="288.0052" cy="327.201" fill="#FFFFFF" rx="74.0052" ry="17.201" style="stroke:#000000;stroke-width:1;"/><text fill="#000000" font-family="Verdana" font-size="14" lengthAdjust="spacing" textLength="116.3066" x="229.8519" y="331.8495">view sync status</text></g><!--entity SSS--><g class="entity" data-qualified-name="Classhub.Source Management.SSS" data-source-line="17" id="ent0012"><ellipse cx="287.8251" cy="394.965" fill="#FFFFFF" rx="67.8251" ry="15.965" style="stroke:#000000;stroke-width:1;"/><text fill="#000000" font-family="Verdana" font-size="14" lengthAdjust="spacing" textLength="100.8438" x="237.4032" y="399.6135">Share Sources</text></g><g class="entity" data-qualified-name="Classhub.Source Management.GMN13" data-source-line="18" id="ent0014"><path d="M548,371 L548,388.66 L356.13,394.39 L548,396.66 L548,411.2656 A0,0 0 0 0 548,411.2656 L915.8867,411.2656 A0,0 0 0 0 915.8867,411.2656 L915.8867,381 L905.8867,371 L548,371 A0,0 0 0 0 548,371" fill="#FFFFFF" style="stroke:#000000;stroke-width:1;"/><path d="M905.8867,371 L905.8867,381 L915.8867,381 L905.8867,371" fill="#FFFFFF" style="stroke:#000000;stroke-width:1;"/><text fill="#000000" font-family="Verdana" font-size="13" lengthAdjust="spacing" textLength="346.8867" x="554" y="388.0669">share as a URI containing a string of all sources URLs</text><text fill="#000000" font-family="Verdana" font-size="13" lengthAdjust="spacing" textLength="162.1572" x="554" y="403.1997">opens directly in the app</text></g><!--entity CFAD--><g class="entity" data-qualified-name="Classhub.File Management.CFAD" data-source-line="22" id="ent0017"><ellipse cx="288.1111" cy="515.9222" fill="#FFFFFF" rx="135.1111" ry="29.4222" style="stroke:#000000;stroke-width:1;"/><text fill="#000000" font-family="Verdana" font-size="14" lengthAdjust="spacing" textLength="251.3438" x="162.4392" y="520.5707">Create local folders and Documents</text></g><!--entity BND--><g class="entity" data-qualified-name="Classhub.File Management.BND" data-source-line="23" id="ent0018"><ellipse cx="288.1407" cy="604.9281" fill="#FFFFFF" rx="107.6407" ry="23.9281" style="stroke:#000000;stroke-width:1;"/><text fill="#000000" font-family="Verdana" font-size="14" lengthAdjust="spacing" textLength="192.7666" x="191.7574" y="609.5766">Browse &amp; Open Documents</text></g><!--entity DFF--><g class="entity" data-qualified-name="Classhub.File Management.DFF" data-source-line="24" id="ent0019"><ellipse cx="288.1796" cy="683.0359" fill="#FFFFFF" rx="80.6796" ry="18.5359" style="stroke:#000000;stroke-width:1;"/><text fill="#000000" font-family="Verdana" font-size="14" lengthAdjust="spacing" textLength="132.2754" x="222.0419" y="687.6844">Delete File / Folder</text></g><!--entity s--><g class="entity" data-qualified-name="s" data-source-line="4" id="ent0002"><ellipse cx="38.5557" cy="338.5" fill="#FFFFFF" rx="8" ry="8" style="stroke:#000000;stroke-width:1;"/><path d="M38.5557,346.5 L38.5557,373.5 M25.5557,354.5 L51.5557,354.5 M38.5557,373.5 L25.5557,388.5 M38.5557,373.5 L51.5557,388.5" fill="none" style="stroke:#000000;stroke-width:1;"/><text fill="#000000" font-family="Verdana" font-size="14" lengthAdjust="spacing" textLength="55.1113" x="11" y="403.4951">Student</text></g><!--link s to ANS--><g class="link" data-entity-1="ent0002" data-entity-2="ent0005" data-link-type="dependency" data-source-line="30" id="lnk21"><path d="M64.44,329.39 C75.28,315.54 89.15,301.12 105,292 C138.16,272.92 173.8456,264.8927 208.9356,261.0527" fill="none" id="s-to-ANS" style="stroke:#000000;stroke-width:1;"/><polygon fill="#000000" points="214.9,260.4,205.5183,257.4028,209.9297,260.9439,206.3885,265.3553,214.9,260.4" style="stroke:#000000;stroke-width:1;"/></g><!--link s to SS--><g class="link" data-entity-1="ent0002" data-entity-2="ent0009" data-link-type="dependency" data-source-line="31" id="lnk22"><path d="M46.49,329.39 C54.63,295.96 71.51,249.01 105,223 C139.33,196.34 182.3123,189.0951 220.8123,188.0351" fill="none" id="s-to-SS" style="stroke:#000000;stroke-width:1;"/><polygon fill="#000000" points="226.81,187.87,217.7033,184.1192,221.8119,188.0076,217.9235,192.1162,226.81,187.87" style="stroke:#000000;stroke-width:1;"/></g><!--link s to SAS--><g class="link" data-entity-1="ent0002" data-entity-2="ent0010" data-link-type="dependency" data-source-line="32" id="lnk23"><path d="M40.84,329.38 C44.59,282.37 58.02,203.63 105,158 C134.42,129.42 172.577,117.4845 209.987,111.8445" fill="none" id="s-to-SAS" style="stroke:#000000;stroke-width:1;"/><polygon fill="#000000" points="215.92,110.95,206.4243,108.3364,210.9759,111.6954,207.6169,116.247,215.92,110.95" style="stroke:#000000;stroke-width:1;"/></g><!--link s to VSS--><g class="link" data-entity-1="ent0002" data-entity-2="ent0011" data-link-type="dependency" data-source-line="33" id="lnk24"><path d="M66.17,362 C75.57,359.97 86.23,357.78 96,356 C138.57,348.25 180.7905,341.7999 218.1105,336.4599" fill="none" id="s-to-VSS" style="stroke:#000000;stroke-width:1;"/><polygon fill="#000000" points="224.05,335.61,214.5742,332.9251,219.1004,336.3182,215.7073,340.8445,224.05,335.61" style="stroke:#000000;stroke-width:1;"/></g><!--link s to SSS--><g class="link" data-entity-1="ent0002" data-entity-2="ent0012" data-link-type="dependency" data-source-line="34" id="lnk25"><path d="M66.46,370.94 C104.48,375.09 168.9554,382.1193 220.0154,387.6893" fill="none" id="s-to-SSS" style="stroke:#000000;stroke-width:1;"/><polygon fill="#000000" points="225.98,388.34,217.4669,383.3876,221.0095,387.7978,216.5993,391.3404,225.98,388.34" style="stroke:#000000;stroke-width:1;"/></g><!--link s to BND--><g class="link" data-entity-1="ent0002" data-entity-2="ent0018" data-link-type="dependency" data-source-line="35" id="lnk26"><path d="M41.6,406.6 C46.16,450.88 60.43,522.57 105,563 C126.38,582.39 149.0257,592.1111 177.1257,598.1911" fill="none" id="s-to-BND" style="stroke:#000000;stroke-width:1;"/><polygon fill="#000000" points="182.99,599.46,175.0395,593.6472,178.1031,598.4026,173.3476,601.4662,182.99,599.46" style="stroke:#000000;stroke-width:1;"/></g><!--link s to CFAD--><g class="link" data-entity-1="ent0002" data-entity-2="ent0017" data-link-type="dependency" data-source-line="36" id="lnk27"><path d="M66.13,395.08 C77.5,405.8 91.3,417.75 105,427 C142.02,452 181.6119,471.675 217.6419,487.595" fill="none" id="s-to-CFAD" style="stroke:#000000;stroke-width:1;"/><polygon fill="#000000" points="223.13,490.02,216.5144,482.7238,218.5566,487.9992,213.2812,490.0413,223.13,490.02" style="stroke:#000000;stroke-width:1;"/></g><!--link s to DFF--><g class="link" data-entity-1="ent0002" data-entity-2="ent0019" data-link-type="dependency" data-source-line="37" id="lnk28"><path d="M43.48,406.56 C51.33,474.87 71.05,613.08 105,646 C131.97,672.15 166.1032,681.6328 201.8132,684.7828" fill="none" id="s-to-DFF" style="stroke:#000000;stroke-width:1;"/><polygon fill="#000000" points="207.79,685.31,199.1763,680.5346,202.8093,684.8707,198.4733,688.5037,207.79,685.31" style="stroke:#000000;stroke-width:1;"/></g><!--link SAS to SS--><g class="link" data-entity-1="ent0010" data-entity-2="ent0009" data-link-type="dependency" data-source-line="39" id="lnk29"><path d="M288,124.2 C288,139.44 288,155.45 288,169.98" fill="none" id="SAS-to-SS" style="stroke:#000000;stroke-width:1;stroke-dasharray:7,7;"/><polygon fill="#000000" points="288,175.98,292,166.98,288,170.98,284,166.98,288,175.98" style="stroke:#000000;stroke-width:1;"/><text fill="#000000" font-family="Verdana" font-size="13" lengthAdjust="spacing" textLength="63.0068" x="245" y="154.5669">&#171;include&#187;</text></g><!--reverse link ANS to AREPO--><g class="link" data-entity-1="ent0005" data-entity-2="ent0006" data-link-type="dependency" data-source-line="41" id="lnk31"><path d="M356.8078,267.8516 C388.0278,272.3816 420.55,277.08 455,282 C536.44,293.64 631.43,307.02 686.06,314.69" fill="none" id="ANS-backto-AREPO" style="stroke:#000000;stroke-width:1;stroke-dasharray:7,7;"/><polygon fill="#000000" points="350.87,266.99,359.2023,272.2409,355.8182,267.708,360.3511,264.3238,350.87,266.99" style="stroke:#000000;stroke-width:1;"/><text fill="#000000" font-family="Verdana" font-size="13" lengthAdjust="spacing" textLength="61.1851" x="456" y="278.0669">&#171;extend&#187;</text></g><!--reverse link ANS to ADRIVE--><g class="link" data-entity-1="ent0005" data-entity-2="ent0007" data-link-type="dependency" data-source-line="42" id="lnk33"><path d="M367.4896,257.112 C447.8196,256.202 570.88,254.81 653.26,253.88" fill="none" id="ANS-backto-ADRIVE" style="stroke:#000000;stroke-width:1;stroke-dasharray:7,7;"/><polygon fill="#000000" points="361.49,257.18,370.5347,261.0778,366.4897,257.1234,370.4441,253.0783,361.49,257.18" style="stroke:#000000;stroke-width:1;"/><text fill="#000000" font-family="Verdana" font-size="13" lengthAdjust="spacing" textLength="61.1851" x="456" y="252.0669">&#171;extend&#187;</text></g><!--reverse link ANS to ACLASSROOM--><g class="link" data-entity-1="ent0005" data-entity-2="ent0008" data-link-type="dependency" data-source-line="43" id="lnk35"><path d="M353.6055,247.0366 C439.0855,232.5366 590.85,206.78 674.86,192.53" fill="none" id="ANS-backto-ACLASSROOM" style="stroke:#000000;stroke-width:1;stroke-dasharray:7,7;"/><polygon fill="#000000" points="347.69,248.04,357.2322,250.4785,352.6196,247.2038,355.8943,242.5912,347.69,248.04" style="stroke:#000000;stroke-width:1;"/><text fill="#000000" font-family="Verdana" font-size="13" lengthAdjust="spacing" textLength="61.1851" x="456" y="216.0669">&#171;extend&#187;</text></g><!--link ACLASSROOM to AUTH--><g class="link" data-entity-1="ent0008" data-entity-2="ent0020" data-link-type="dependency" data-source-line="44" id="lnk36"><path d="M801.57,183 C870.65,183 970.28,183 1036.8,183" fill="none" id="ACLASSROOM-to-AUTH" style="stroke:#000000;stroke-width:1;stroke-dasharray:7,7;"/><polygon fill="#000000" points="1042.8,183,1033.8,179,1037.8,183,1033.8,187,1042.8,183" style="stroke:#000000;stroke-width:1;"/><text fill="#000000" font-family="Verdana" font-size="13" lengthAdjust="spacing" textLength="63.0068" x="949" y="179.0669">&#171;include&#187;</text></g><?plantuml-src ZPDDRzim38Rl-XLS3iDsQ7OVYW1k76y5scImrfnwKMKc5g1AXZxQ5SF--oWfIPFMMwkB2UaXtvSW_I7qU8ymQA4CqxW942mujUq3TCgX3CeQneGCrW4FiKCJG7ZmZAL7OROQOJBNmli-tatWDmCwHq_SHYSHheKHMn8oOS-a4prAuOcgkWwM-0Y5dYI5Qid7kHO7MuXsyMCrpjHEFI1y6kATLl9peUlsShqOnxD_P-rz8UTN5UVjQdNDNkFyoSXZcvp_Wwcqtd6-WDK8-Q2eQPzm7qI8XLnJpP6YlN1uMl58szY0kx7PJNg1h-1p1e42RjfBaDO46h8oMxhmmQM0M44-VQbAs9M_DNP0utVJrq-W3D2EW1Y6hFQ7lHnne_IR0vux5EHGMoaqRApkq94lGvEoCgQiqjAygUhNoHVEFjBt8wp8sOkCY-L8GeqQIIqR-m9DbijqtJJ7JHmIlbcRMgbYwCiAtFpypWZoS7OsowjO8du8gdsqVhuxHCbKYN939KpQZF9Wcb2Qp_cvCbBJBpMRCPQNkRGnZSCqYqA6y5T0qn5JDlZ_o65rtuKaW3ezzV8N?></g></svg>