<?plantuml 1.2026.2?><svg xmlns="http://www.w3.org/2000/svg" xmlns:xlink="http://www.w3.org/1999/xlink" contentStyleType="text/css" data-diagram-type="DESCRIPTION" height="662px" preserveAspectRatio="none" style="width:1046px;height:662px;background:#FFFFFF;" version="1.1" viewBox="0 0 1046 662" width="1046px" zoomAndPan="magnify"><defs/><g><!--cluster Classhub--><g class="cluster" data-qualified-name="Classhub" data-source-line="6" id="ent0003"><rect fill="#FFFFFF" height="644" rx="2.5" ry="2.5" style="stroke:#000000;stroke-width:1;" width="927" x="113" y="12"/><text fill="#000000" font-family="Verdana" font-size="14" font-weight="bold" lengthAdjust="spacing" textLength="71.1416" x="540.9292" y="26.9951">Classhub</text></g><!--cluster Source Management--><g class="cluster" data-qualified-name="Classhub.Source Management" data-source-line="7" id="ent0004"><rect fill="#FFFFFF" height="286" rx="2.5" ry="2.5" style="stroke:#000000;stroke-width:1;" width="556.5" x="231.5" y="55"/><text fill="#000000" font-family="Verdana" font-size="14" font-weight="bold" lengthAdjust="spacing" textLength="162.292" x="428.604" y="69.9951">Source Management</text></g><!--cluster Local Document Management--><g class="cluster" data-qualified-name="Classhub.Local Document Management" data-source-line="19" id="ent0012"><rect fill="#FFFFFF" height="267" rx="2.5" ry="2.5" style="stroke:#000000;stroke-width:1;" width="369" x="137" y="365"/><text fill="#000000" font-family="Verdana" font-size="14" font-weight="bold" lengthAdjust="spacing" textLength="234.1309" x="204.4346" y="379.9951">Local Document Management</text></g><!--entity AUTH--><g class="entity" data-qualified-name="Classhub.AUTH" data-source-line="25" id="ent0016"><ellipse cx="961.4659" cy="106.8932" fill="#FFFFFF" rx="62.4659" ry="14.8932" style="stroke:#000000;stroke-width:1;"/><text fill="#000000" font-family="Verdana" font-size="14" lengthAdjust="spacing" textLength="86.6318" x="918.15" y="111.5416">Google Auth</text></g><!--entity ANS--><g class="entity" data-qualified-name="Classhub.Source Management.ANS" data-source-line="8" id="ent0005"><ellipse cx="321.544" cy="107.1088" fill="#FFFFFF" rx="73.544" ry="17.1088" style="stroke:#000000;stroke-width:1;"/><text fill="#000000" font-family="Verdana" font-size="14" lengthAdjust="spacing" textLength="115.1787" x="263.9547" y="111.7572">Add New Source</text></g><!--entity AREPO--><g class="entity" data-qualified-name="Classhub.Source Management.AREPO" data-source-line="9" id="ent0006"><ellipse cx="693.296" cy="245.0236" fill="#FFFFFF" rx="50.796" ry="14.5236" style="stroke:#000000;stroke-width:1;"/><text fill="#000000" font-family="Verdana" font-size="14" lengthAdjust="spacing" textLength="67.5938" x="659.4991" y="249.6721">Add Repo</text></g><!--entity ADRIVE--><g class="entity" data-qualified-name="Classhub.Source Management.ADRIVE" data-source-line="10" id="ent0007"><ellipse cx="693.2875" cy="177.0575" fill="#FFFFFF" rx="78.2875" ry="18.0575" style="stroke:#000000;stroke-width:1;"/><text fill="#000000" font-family="Verdana" font-size="14" lengthAdjust="spacing" textLength="126.6221" x="629.9765" y="181.7059">Add Drive (public)</text></g><!--entity ACLASSROOM--><g class="entity" data-qualified-name="Classhub.Source Management.ACLASSROOM" data-source-line="11" id="ent0008"><ellipse cx="693.5164" cy="106.8033" fill="#FFFFFF" rx="69.5164" ry="16.3033" style="stroke:#000000;stroke-width:1;"/><text fill="#000000" font-family="Verdana" font-size="14" lengthAdjust="spacing" textLength="105.1572" x="640.9378" y="111.4517">Add Classroom</text></g><!--entity SS--><g class="entity" data-qualified-name="Classhub.Source Management.SS" data-source-line="13" id="ent0009"><ellipse cx="321.4485" cy="173.8897" fill="#FFFFFF" rx="62.4485" ry="14.8897" style="stroke:#000000;stroke-width:1;"/><text fill="#000000" font-family="Verdana" font-size="14" lengthAdjust="spacing" textLength="86.584" x="278.1565" y="178.5381">Sync Source</text></g><!--entity SAS--><g class="entity" data-qualified-name="Classhub.Source Management.SAS" data-source-line="14" id="ent0010"><ellipse cx="321.2507" cy="241.1501" fill="#FFFFFF" rx="73.7507" ry="17.1501" style="stroke:#000000;stroke-width:1;"/><text fill="#000000" font-family="Verdana" font-size="14" lengthAdjust="spacing" textLength="115.6846" x="263.4084" y="245.7986">Sync All Sources</text></g><!--entity SSS--><g class="entity" data-qualified-name="Classhub.Source Management.SSS" data-source-line="16" id="ent0011"><ellipse cx="321.3251" cy="308.965" fill="#FFFFFF" rx="67.8251" ry="15.965" style="stroke:#000000;stroke-width:1;"/><text fill="#000000" font-family="Verdana" font-size="14" lengthAdjust="spacing" textLength="100.8438" x="270.9032" y="313.6135">Share Sources</text></g><!--entity ND--><g class="entity" data-qualified-name="Classhub.Local Document Management.ND" data-source-line="20" id="ent0013"><ellipse cx="321.5666" cy="419.8133" fill="#FFFFFF" rx="87.0666" ry="19.8133" style="stroke:#000000;stroke-width:1;"/><text fill="#000000" font-family="Verdana" font-size="14" lengthAdjust="spacing" textLength="147.0684" x="248.0325" y="424.4618">Navigate Documents</text></g><!--entity OD--><g class="entity" data-qualified-name="Classhub.Local Document Management.OD" data-source-line="21" id="ent0014"><ellipse cx="321.7152" cy="492.043" fill="#FFFFFF" rx="73.2152" ry="17.043" style="stroke:#000000;stroke-width:1;"/><text fill="#000000" font-family="Verdana" font-size="14" lengthAdjust="spacing" textLength="114.3721" x="264.5291" y="496.6915">Open Document</text></g><!--entity AD--><g class="entity" data-qualified-name="Classhub.Local Document Management.AD" data-source-line="22" id="ent0015"><ellipse cx="321.7338" cy="580.1468" fill="#FFFFFF" rx="168.7338" ry="36.1468" style="stroke:#000000;stroke-width:1;"/><text fill="#000000" font-family="Verdana" font-size="14" lengthAdjust="spacing" textLength="321.2959" x="161.0858" y="584.7952">Add new Document to Local Document Space</text></g><!--entity s--><g class="entity" data-qualified-name="s" data-source-line="4" id="ent0002"><ellipse cx="38.5557" cy="279.5" fill="#FFFFFF" rx="8" ry="8" style="stroke:#000000;stroke-width:1;"/><path d="M38.5557,287.5 L38.5557,314.5 M25.5557,295.5 L51.5557,295.5 M38.5557,314.5 L25.5557,329.5 M38.5557,314.5 L51.5557,329.5" fill="none" style="stroke:#000000;stroke-width:1;"/><text fill="#000000" font-family="Verdana" font-size="14" lengthAdjust="spacing" textLength="55.1113" x="11" y="344.4951">Student</text></g><!--link s to ANS--><g class="link" data-entity-1="ent0002" data-entity-2="ent0005" data-link-type="dependency" data-source-line="28" id="lnk17"><path d="M43.59,270.18 C49.86,231.27 65.62,172.7 105,141 C146.01,107.99 200.0202,100.7572 246.3002,101.0872" fill="none" id="s-to-ANS" style="stroke:#000000;stroke-width:1;"/><polygon fill="#000000" points="252.3,101.13,243.3288,97.0659,247.3001,101.0943,243.2717,105.0657,252.3,101.13" style="stroke:#000000;stroke-width:1;"/></g><!--link s to SS--><g class="link" data-entity-1="ent0002" data-entity-2="ent0009" data-link-type="dependency" data-source-line="29" id="lnk18"><path d="M54.32,270.38 C64.98,247.94 81.63,221.18 105,206 C151.32,175.93 208.8901,169.7188 254.9801,169.9588" fill="none" id="s-to-SS" style="stroke:#000000;stroke-width:1;"/><polygon fill="#000000" points="260.98,169.99,252.001,165.9432,255.9801,169.964,251.9593,173.9431,260.98,169.99" style="stroke:#000000;stroke-width:1;"/></g><!--link s to SAS--><g class="link" data-entity-1="ent0002" data-entity-2="ent0010" data-link-type="dependency" data-source-line="30" id="lnk19"><path d="M66.05,292.73 C77.64,286.3 91.61,279.4 105,275 C152.32,259.44 201.9147,251.5444 244.7747,246.9144" fill="none" id="s-to-SAS" style="stroke:#000000;stroke-width:1;"/><polygon fill="#000000" points="250.74,246.27,241.3625,243.2597,245.7689,246.807,242.2217,251.2135,250.74,246.27" style="stroke:#000000;stroke-width:1;"/></g><!--link s to SSS--><g class="link" data-entity-1="ent0002" data-entity-2="ent0011" data-link-type="dependency" data-source-line="31" id="lnk20"><path d="M66.19,309 C108.8,309 187.47,309 247.39,309" fill="none" id="s-to-SSS" style="stroke:#000000;stroke-width:1;"/><polygon fill="#000000" points="253.39,309,244.39,305,248.39,309,244.39,313,253.39,309" style="stroke:#000000;stroke-width:1;"/></g><!--link s to ND--><g class="link" data-entity-1="ent0002" data-entity-2="ent0013" data-link-type="dependency" data-source-line="32" id="lnk21"><path d="M66.3,322.87 C78.05,328.74 92.08,335.49 105,341 C161.09,364.91 221.4336,386.5063 265.4736,401.5863" fill="none" id="s-to-ND" style="stroke:#000000;stroke-width:1;"/><polygon fill="#000000" points="271.15,403.53,263.9311,396.8301,266.4196,401.9102,261.3395,404.3987,271.15,403.53" style="stroke:#000000;stroke-width:1;"/></g><!--link s to OD--><g class="link" data-entity-1="ent0002" data-entity-2="ent0014" data-link-type="dependency" data-source-line="33" id="lnk22"><path d="M45.94,347.5 C53.79,381.74 70.53,430.38 105,457 C146.32,488.91 199.5701,496.5695 245.4901,496.8795" fill="none" id="s-to-OD" style="stroke:#000000;stroke-width:1;"/><polygon fill="#000000" points="251.49,496.92,242.5172,492.8593,246.4901,496.8862,242.4632,500.8592,251.49,496.92" style="stroke:#000000;stroke-width:1;"/></g><!--link s to AD--><g class="link" data-entity-1="ent0002" data-entity-2="ent0015" data-link-type="dependency" data-source-line="34" id="lnk23"><path d="M40.15,347.83 C43.14,396.44 55.73,479.02 105,526 C123.35,543.5 140.8219,553.6312 165.0719,561.9112" fill="none" id="s-to-AD" style="stroke:#000000;stroke-width:1;"/><polygon fill="#000000" points="170.75,563.85,163.5253,557.1564,166.0182,562.2344,160.9403,564.7273,170.75,563.85" style="stroke:#000000;stroke-width:1;"/></g><!--reverse link ANS to AREPO--><g class="link" data-entity-1="ent0005" data-entity-2="ent0006" data-link-type="dependency" data-source-line="36" id="lnk25"><path d="M396.8196,101.3789 C437.7696,101.8489 481.95,109.79 514,141 C526.68,153.34 510.54,166.52 522,180 C553.08,216.57 607.09,232.62 646,239.63" fill="none" id="ANS-backto-AREPO" style="stroke:#000000;stroke-width:1;stroke-dasharray:7,7;"/><polygon fill="#000000" points="390.82,101.31,399.7735,105.413,395.8197,101.3674,399.8653,97.4136,390.82,101.31" style="stroke:#000000;stroke-width:1;"/><text fill="#000000" font-family="Verdana" font-size="13" lengthAdjust="spacing" textLength="61.1851" x="523" y="176.0669">&#171;extend&#187;</text></g><!--reverse link ANS to ADRIVE--><g class="link" data-entity-1="ent0005" data-entity-2="ent0007" data-link-type="dependency" data-source-line="37" id="lnk27"><path d="M387.1414,118.0871 C425.0714,124.6771 469.54,132.57 514,141 C554.38,148.66 599.78,157.82 634.69,164.99" fill="none" id="ANS-backto-ADRIVE" style="stroke:#000000;stroke-width:1;stroke-dasharray:7,7;"/><polygon fill="#000000" points="381.23,117.06,389.4125,122.5416,386.1562,117.9159,390.7819,114.6596,381.23,117.06" style="stroke:#000000;stroke-width:1;"/><text fill="#000000" font-family="Verdana" font-size="13" lengthAdjust="spacing" textLength="61.1851" x="523" y="139.0669">&#171;extend&#187;</text></g><!--reverse link ANS to ACLASSROOM--><g class="link" data-entity-1="ent0005" data-entity-2="ent0008" data-link-type="dependency" data-source-line="38" id="lnk29"><path d="M401.16,107 C467.45,107 558.72,107 623.76,107" fill="none" id="ANS-backto-ACLASSROOM" style="stroke:#000000;stroke-width:1;stroke-dasharray:7,7;"/><polygon fill="#000000" points="395.16,107,404.16,111,400.16,107,404.16,103,395.16,107" style="stroke:#000000;stroke-width:1;"/><text fill="#000000" font-family="Verdana" font-size="13" lengthAdjust="spacing" textLength="61.1851" x="523" y="103.0669">&#171;extend&#187;</text></g><!--link ACLASSROOM to AUTH--><g class="link" data-entity-1="ent0008" data-entity-2="ent0016" data-link-type="dependency" data-source-line="39" id="lnk30"><path d="M763,107 C804.87,107 851.99,107 892.6,107" fill="none" id="ACLASSROOM-to-AUTH" style="stroke:#000000;stroke-width:1;stroke-dasharray:7,7;"/><polygon fill="#000000" points="898.6,107,889.6,103,893.6,107,889.6,111,898.6,107" style="stroke:#000000;stroke-width:1;"/><text fill="#000000" font-family="Verdana" font-size="13" lengthAdjust="spacing" textLength="63.0068" x="805" y="103.0669">&#171;include&#187;</text></g><?plantuml-src ZPDTJuCm58Rl-okENEd5zWFCGaB6eYOR6AhUT-K8JRgMq7PgZF_TGWVE3JzwzOO-FUSz7rpO6dS8ZMH24OdF5go6LbIrXLAqoAtGYX36hMw1MbUYii0C64AwIwOgYH0j9JEcTji8tWduStH5jMivmeOfLlb4oWvCTvn1peodahA435yWq56N8SdeD5TWemDHhExpQIPjnHxXid5RAVXLeDFYxcarZVV-MwrtWLok4qgBFD-GSvo-ANviaz8Vc4JA0sS2cD2fS3LhyJjtYFX1Jbkvrfn9I3LtNH__Qcd6zg9Y5iS78NoMdgDvWsh4UYfFfnkb_8n60tvHJYpHXWtJIu-B66FSQDsLaZXR1-pnuPPuoC1i5lSZ3ugE8ldwD2XVGX3v87msqcz3i3ntpRoF1d0DYmM-MbHb79Em0hyZu-p_XNI0Bw47XEBI_nzn_0a0?></g></svg>